<svg xmlns="http://www.w3.org/2000/svg" version="1.1" xmlns:xlink="http://www.w3.org/1999/xlink" xmlns:svgjs="http://svgjs.dev/svgjs" width="1000" height="1000" viewBox="0 0 1000 1000"><rect width="1000" height="1000" fill="#a62a6c"></rect><g transform="matrix(0.7,0,0,0.7,149.84897959183667,150.19913061224486)"><svg viewBox="0 0 343 343" data-background-color="#a62a6c" preserveAspectRatio="xMidYMid meet" height="999" width="1000" xmlns="http://www.w3.org/2000/svg" xmlns:xlink="http://www.w3.org/1999/xlink"><g id="tight-bounds" transform="matrix(1,0,0,1,0.0740000000000407,0.07400000000001228)"><svg viewBox="0 0 342.85155851775386 342.85155851775386" height="342.85155851775386" width="342.85155851775386"><g><svg></svg></g><g><svg viewBox="0 0 342.85155851775386 342.85155851775386" height="342.85155851775386" width="342.85155851775386"><g><path d="M0 171.426c0-94.676 76.75-171.426 171.426-171.426 94.676 0 171.426 76.75 171.426 171.426 0 94.676-76.75 171.426-171.426 171.426-94.676 0-171.426-76.75-171.426-171.426zM171.426 340.077c93.144 0 168.652-75.508 168.651-168.651 0-93.144-75.508-168.652-168.651-168.652-93.144 0-168.652 75.508-168.652 168.652 0 93.144 75.508 168.652 168.652 168.651z" data-fill-palette-color="tertiary" fill="#edbbba" stroke="transparent"></path><ellipse rx="164.56874808852186" ry="164.56874808852186" cx="171.42577925887693" cy="171.42577925887693" fill="#edbbba" stroke="transparent" stroke-width="0" fill-opacity="1" data-fill-palette-color="tertiary"></ellipse></g><g transform="matrix(1,0,0,1,64.84655864529837,131.15558809783238)"><svg viewBox="0 0 213.1584412271571 80.5403823220891" height="80.5403823220891" width="213.1584412271571"><g><svg viewBox="0 0 213.1584412271571 80.5403823220891" height="80.5403823220891" width="213.1584412271571"><g><svg viewBox="0 0 213.1584412271571 80.5403823220891" height="80.5403823220891" width="213.1584412271571"><g transform="matrix(1,0,0,1,0,49.777187394940654)"><svg viewBox="0 0 213.1584412271571 30.763194927148447" height="30.763194927148447" width="213.1584412271571"><g id="textblocktransform"><svg viewBox="0 0 213.1584412271571 30.763194927148447" height="30.763194927148447" width="213.1584412271571" id="textblock"><g><svg viewBox="0 0 213.1584412271571 30.763194927148447" height="30.763194927148447" width="213.1584412271571"><g transform="matrix(1,0,0,1,0,0)"><svg width="213.1584412271571" viewBox="0.24 -37.5 276.4 39.89" height="30.763194927148447" data-palette-color="#a62a6c"><path d="M23.05-24.85L23.05-24.85Q23.05-23.93 22.83-22.9 22.61-21.88 22.12-21 21.63-20.12 20.85-19.53 20.07-18.95 18.95-18.95L18.95-18.95Q17.24-18.95 16.41-19.56 15.58-20.17 15.23-21.09 14.89-22.02 14.87-23.07 14.84-24.12 14.79-25.05 14.75-25.98 14.48-26.59 14.21-27.2 13.33-27.2L13.33-27.2Q12.35-27.2 11.62-26.49 10.89-25.78 10.35-24.66 9.81-23.54 9.45-22.12 9.08-20.7 8.86-19.31 8.64-17.92 8.54-16.67 8.45-15.43 8.45-14.65L8.45-14.65Q8.45-13.62 8.52-12.21 8.59-10.79 8.98-9.5 9.38-8.2 10.16-7.3 10.94-6.4 12.4-6.4L12.4-6.4Q13.38-6.4 14.31-6.64 15.23-6.88 16.16-7.2 17.09-7.52 18.04-7.76 18.99-8.01 19.97-8.01L19.97-8.01Q21.09-8.01 21.83-7.1 22.56-6.2 22.56-5.08L22.56-5.08Q22.56-3.52 21.58-2.17 20.61-0.83 19.17 0.2 17.72 1.22 16.04 1.81 14.36 2.39 12.99 2.39L12.99 2.39Q9.47 2.39 7.03 0.81 4.59-0.78 3.08-3.3 1.56-5.81 0.9-8.91 0.24-12.01 0.24-15.09L0.24-15.09Q0.24-17.14 0.63-19.58 1.03-22.02 1.81-24.49 2.59-26.95 3.78-29.25 4.98-31.54 6.59-33.3 8.2-35.06 10.23-36.13 12.26-37.21 14.7-37.21L14.7-37.21Q17.09-37.21 18.7-36.01 20.31-34.81 21.29-32.98 22.27-31.15 22.66-28.98 23.05-26.81 23.05-24.85ZM36.18 1.61L36.18 1.61Q33.2 1.61 31 0.12 28.81-1.37 27.37-3.88 25.93-6.4 25.22-9.72 24.51-13.04 24.51-16.7L24.51-16.7Q24.51-20.12 25.27-23.63 26.02-27.15 27.59-29.98 29.15-32.81 31.54-34.62 33.93-36.43 37.25-36.43L37.25-36.43Q40.48-36.43 42.65-34.69 44.82-32.96 46.12-30.2 47.41-27.44 47.97-24.02 48.53-20.61 48.53-17.19L48.53-17.19Q48.53-13.38 47.78-9.99 47.02-6.59 45.48-4 43.94-1.42 41.62 0.1 39.3 1.61 36.18 1.61ZM36.77-25.63L36.77-25.63Q35.84-25.63 35.18-24.9 34.52-24.17 34.08-22.97 33.64-21.78 33.44-20.29 33.25-18.8 33.25-17.29L33.25-17.29Q33.25-15.58 33.47-13.87 33.69-12.16 34.13-10.79 34.57-9.42 35.23-8.59 35.89-7.76 36.81-7.76L36.81-7.76Q37.89-7.76 38.52-8.84 39.16-9.91 39.52-11.43 39.89-12.94 40.01-14.55 40.13-16.16 40.13-17.24L40.13-17.24Q40.13-18.55 39.96-20.02 39.79-21.48 39.4-22.73 39.01-23.97 38.38-24.8 37.74-25.63 36.77-25.63ZM77.44-17.14L77.44-17.14Q77.44-15.14 77.24-13.01 77.05-10.89 76.56-8.89 76.07-6.88 75.21-5.1 74.36-3.32 73.04-1.98 71.72-0.63 69.87 0.15 68.01 0.93 65.52 0.93L65.52 0.93Q61.86 0.93 59.15-0.78 56.44-2.49 54.63-5.15 52.83-7.81 51.95-11.11 51.07-14.4 51.07-17.63L51.07-17.63Q51.07-17.97 51.07-18.26 51.07-18.55 51.12-18.8L51.12-18.8Q51.17-19.82 51.29-21.58 51.41-23.34 51.7-25.34 52-27.34 52.46-29.44 52.92-31.54 53.68-33.2 54.44-34.86 55.51-35.94 56.59-37.01 58.05-37.01L58.05-37.01Q59.13-37.01 59.86-36.38 60.59-35.74 61.05-34.79 61.52-33.84 61.71-32.79 61.91-31.74 61.91-30.86L61.91-30.86Q61.91-29.54 61.64-28.2 61.37-26.86 61.13-25.54L61.13-25.54Q60.74-23.44 60.49-21.34 60.25-19.24 60.25-17.04L60.25-17.04Q60.25-15.92 60.37-14.31 60.49-12.7 60.98-11.21 61.47-9.72 62.37-8.67 63.28-7.62 64.84-7.62L64.84-7.62Q66.35-7.62 67.26-8.64 68.16-9.67 68.6-11.08 69.04-12.5 69.16-14.06 69.28-15.63 69.28-16.75L69.28-16.75Q69.28-19.97 68.75-23.12 68.21-26.27 67.33-29.39L67.33-29.39Q67.08-30.22 66.91-31.05 66.74-31.88 66.74-32.71L66.74-32.71Q66.74-34.08 67.55-35.11 68.35-36.13 69.82-36.13L69.82-36.13Q71.04-36.13 72.09-35.18 73.14-34.23 73.97-32.69 74.8-31.15 75.41-29.25 76.02-27.34 76.46-25.46 76.9-23.58 77.12-21.88 77.34-20.17 77.39-19.09L77.39-19.09Q77.44-18.6 77.44-18.14 77.44-17.68 77.44-17.14ZM103.31-26.17L103.31-26.17Q103.31-23.54 102.17-21 101.02-18.46 99.11-16.43 97.21-14.4 94.77-13.11 92.33-11.82 89.74-11.67L89.74-11.67Q89.69-10.79 89.67-9.45 89.64-8.11 89.49-6.64 89.35-5.18 89.08-3.71 88.81-2.25 88.3-1.07 87.79 0.1 86.98 0.83 86.17 1.56 85 1.56L85 1.56Q83.64 1.56 82.83 0.66 82.02-0.24 81.61-1.51 81.19-2.78 81.05-4.17 80.9-5.57 80.85-6.54L80.85-6.54Q80.75-7.96 80.73-9.33 80.71-10.69 80.71-12.11L80.71-12.11Q80.71-12.74 80.71-14.48 80.71-16.21 80.73-18.43 80.75-20.65 80.8-23.07 80.85-25.49 80.95-27.56 81.05-29.64 81.17-31.1 81.29-32.57 81.49-32.81L81.49-32.81Q81.54-32.86 81.78-33.03 82.02-33.2 82.32-33.37 82.61-33.54 82.85-33.69 83.1-33.84 83.2-33.89L83.2-33.89Q85.44-35.16 88.13-36.08 90.81-37.01 93.45-37.01L93.45-37.01Q95.7-37.01 97.53-36.11 99.36-35.21 100.65-33.72 101.95-32.23 102.63-30.25 103.31-28.27 103.31-26.17ZM94.87-25.05L94.87-25.05Q94.87-26.03 94.4-26.76 93.94-27.49 92.86-27.49L92.86-27.49Q91.94-27.49 91.01-27.12 90.08-26.76 89.3-26.37L89.3-26.37Q89.45-24.66 89.57-23.05 89.69-21.44 89.59-19.73L89.59-19.73Q90.37-20.12 91.3-20.63 92.23-21.14 93.01-21.78 93.79-22.41 94.33-23.22 94.87-24.02 94.87-25.05ZM127.77-6.74L127.77-6.74Q127.77-5.52 126.77-4.44 125.77-3.37 124.18-2.49 122.6-1.61 120.64-0.95 118.69-0.29 116.79 0.17 114.88 0.63 113.2 0.88 111.51 1.12 110.54 1.12L110.54 1.12Q109.61 1.12 108.56 0.95 107.51 0.78 106.83 0.2L106.83 0.2Q106.44-0.1 106.14-1.12 105.85-2.15 105.58-3.56 105.31-4.98 105.12-6.62 104.92-8.25 104.8-9.81 104.68-11.38 104.6-12.7 104.53-14.01 104.53-14.75L104.53-14.75Q104.53-15.97 104.6-17.7 104.68-19.43 104.82-21.41 104.97-23.39 105.21-25.44 105.46-27.49 105.78-29.32 106.09-31.15 106.56-32.62 107.02-34.08 107.56-34.91L107.56-34.91Q108.49-36.23 109.9-36.23L109.9-36.23Q110.88-36.23 111.56-35.57 112.25-34.91 112.66-33.86 113.08-32.81 113.3-31.52 113.52-30.22 113.61-28.96 113.71-27.69 113.71-26.61 113.71-25.54 113.71-24.9L113.71-24.9Q113.71-21.09 113.54-17.36 113.37-13.62 113.37-9.81L113.37-9.81 113.37-7.91Q115.57-8.59 118.15-9.2 120.74-9.81 123.09-9.81L123.09-9.81Q123.92-9.81 124.77-9.72 125.62-9.62 126.28-9.3 126.94-8.98 127.36-8.37 127.77-7.76 127.77-6.74ZM150.28-7.67L150.28-7.67Q150.28-6.74 149.79-5.86L149.79-5.86Q149.3-5.03 147.5-3.91 145.69-2.78 143.49-1.78 141.3-0.78 139.25-0.07 137.19 0.63 136.22 0.63L136.22 0.63Q135.53 0.63 134.61 0.32 133.68 0 132.75-0.49 131.82-0.98 131.07-1.61 130.31-2.25 129.97-2.83L129.97-2.83Q129.77-3.17 129.6-4.2 129.43-5.22 129.31-6.59 129.19-7.96 129.09-9.5 128.99-11.04 128.92-12.43 128.84-13.82 128.82-14.89 128.8-15.97 128.8-16.46L128.8-16.46Q128.8-18.26 128.92-20.61 129.04-22.95 129.38-25.32 129.72-27.69 130.38-29.86 131.04-32.03 132.17-33.54L132.17-33.54Q132.51-33.98 133.53-34.47 134.56-34.96 135.95-35.4 137.34-35.84 138.95-36.23 140.56-36.62 142.05-36.89 143.54-37.16 144.76-37.33 145.98-37.5 146.62-37.5L146.62-37.5Q147.35-37.5 148.01-37.18 148.67-36.87 149.13-36.33 149.6-35.79 149.87-35.13 150.13-34.47 150.13-33.74L150.13-33.74Q150.13-33.11 149.96-32.67 149.79-32.23 149.45-31.69L149.45-31.69Q148.96-31.05 147.4-30.18 145.84-29.3 144.01-28.44 142.18-27.59 140.49-26.9 138.81-26.22 138.12-25.93L138.12-25.93Q137.93-24.8 137.71-23.66 137.49-22.51 137.39-21.34L137.39-21.34Q138.9-22.12 140.81-22.8 142.71-23.49 144.42-23.49L144.42-23.49Q147.89-23.49 147.89-20.07L147.89-20.07Q147.89-19.24 147.57-18.6 147.25-17.97 146.74-17.48 146.23-16.99 145.57-16.63 144.91-16.26 144.27-15.92L144.27-15.92Q142.71-15.09 141-14.48 139.29-13.87 137.59-13.28L137.59-13.28Q137.49-12.89 137.39-12.43 137.29-11.96 137.29-11.52L137.29-11.52Q137.29-10.84 137.39-10.16 137.49-9.47 137.59-8.79L137.59-8.79Q138.17-8.98 139.47-9.42 140.76-9.86 142.18-10.3 143.59-10.74 144.91-11.06 146.23-11.38 146.86-11.38L146.86-11.38Q147.59-11.38 148.23-11.06 148.86-10.74 149.3-10.23 149.74-9.72 150.01-9.03 150.28-8.35 150.28-7.67ZM186.12-11.72L186.12-11.72Q185.68-9.52 184.72-7.15 183.77-4.79 182.28-2.83 180.79-0.88 178.74 0.37 176.69 1.61 174.05 1.61L174.05 1.61Q172.1 1.61 170.54 0.83 168.98 0.05 167.71-1.27 166.44-2.59 165.51-4.3 164.58-6.01 163.97-7.84 163.36-9.67 163.07-11.47 162.78-13.28 162.78-14.84L162.78-14.84Q162.78-17.04 163.19-19.56 163.61-22.07 164.44-24.54 165.27-27 166.54-29.27 167.8-31.54 169.54-33.28 171.27-35.01 173.44-36.06 175.62-37.11 178.3-37.11L178.3-37.11Q180.01-37.11 181.48-36.45 182.94-35.79 184.02-34.69 185.09-33.59 185.7-32.08 186.31-30.57 186.31-28.91L186.31-28.91 186.31-28.47Q186.31-27.59 186.24-26.29 186.16-25 185.77-23.83 185.38-22.66 184.6-21.8 183.82-20.95 182.4-20.95L182.4-20.95Q180.7-20.95 179.82-21.73 178.94-22.51 178.94-24.32L178.94-24.32Q178.94-25 178.99-25.68 179.04-26.37 179.04-27.05L179.04-27.05Q179.04-28.08 178.69-28.64 178.35-29.2 177.28-29.2L177.28-29.2Q176.06-29.2 175.08-28.42 174.1-27.64 173.37-26.37 172.64-25.1 172.1-23.49 171.56-21.88 171.22-20.24 170.88-18.6 170.73-17.09 170.59-15.58 170.59-14.5L170.59-14.5Q170.59-13.62 170.69-12.48 170.78-11.33 171.1-10.28 171.42-9.23 172.05-8.5 172.69-7.76 173.71-7.76L173.71-7.76Q175.47-7.76 176.55-8.86 177.62-9.96 178.01-11.67L178.01-11.67Q177.33-11.77 176.67-11.99 176.01-12.21 175.45-12.62 174.88-13.04 174.54-13.65 174.2-14.26 174.2-15.09L174.2-15.09Q174.2-16.6 175.23-17.46 176.25-18.31 177.64-18.75 179.04-19.19 180.5-19.31 181.96-19.43 182.84-19.43L182.84-19.43Q183.48-19.43 184.7-19.34 185.92-19.24 187.12-18.92 188.31-18.6 189.19-18.02 190.07-17.43 190.07-16.5L190.07-16.5Q190.07-14.65 189.07-13.31 188.07-11.96 186.12-11.72ZM214.92-7.23L214.92-7.23Q214.92-6.25 214.75-4.88 214.58-3.52 214.09-2.27 213.6-1.03 212.77-0.17 211.94 0.68 210.58 0.68L210.58 0.68Q208.77 0.68 207.87-0.63 206.96-1.95 206.57-3.78 206.18-5.62 206.11-7.52 206.03-9.42 205.99-10.55L205.99-10.55Q202.47-9.96 199.05-9.52L199.05-9.52Q198.95-8.4 198.64-6.74 198.32-5.08 197.66-3.54 197-2 195.95-0.88 194.9 0.24 193.39 0.24L193.39 0.24Q192.22 0.24 191.56-0.61 190.9-1.46 190.56-2.64 190.21-3.81 190.14-5.05 190.07-6.3 190.07-7.13L190.07-7.13Q190.07-9.91 190.51-12.62 190.95-15.33 191.53-18.02L191.53-18.02Q191.83-19.43 192.31-21.34 192.8-23.24 193.51-25.27 194.22-27.29 195.17-29.27 196.12-31.25 197.34-32.81 198.56-34.38 200.13-35.35 201.69-36.33 203.59-36.33L203.59-36.33Q205.45-36.33 206.82-35.5 208.18-34.67 209.21-33.3 210.23-31.93 210.92-30.2 211.6-28.47 212.06-26.68 212.53-24.9 212.85-23.19 213.16-21.48 213.41-20.17L213.41-20.17Q214.04-16.99 214.48-13.75 214.92-10.5 214.92-7.23ZM205.5-17.68L205.5-19.09Q205.5-19.68 205.42-21.02 205.35-22.36 205.11-23.71 204.86-25.05 204.35-26.1 203.84-27.15 202.96-27.15L202.96-27.15Q202.47-27.15 202.03-26.49 201.59-25.83 201.25-24.83 200.91-23.83 200.64-22.61 200.37-21.39 200.18-20.26 199.98-19.14 199.88-18.24 199.78-17.33 199.74-16.94L199.74-16.94Q202.67-17.19 205.5-17.68L205.5-17.68ZM251.49-5.32L251.49-5.32Q251.34-4.05 251.08-2.83 250.81-1.61 250.42-0.66 250.03 0.29 249.42 0.85 248.81 1.42 248.02 1.42L248.02 1.42Q247.24 1.42 246.61 0.22 245.97-0.98 245.41-2.95 244.85-4.93 244.39-7.42 243.92-9.91 243.56-12.48 243.19-15.04 242.95-17.48 242.7-19.92 242.56-21.73L242.56-21.73Q242.26-19.87 241.87-17.58 241.48-15.28 240.94-12.92 240.41-10.55 239.77-8.28 239.14-6.01 238.41-4.22 237.67-2.44 236.84-1.37 236.01-0.29 235.08-0.29L235.08-0.29Q234.25-0.29 233.42-1.42 232.59-2.54 231.81-4.37 231.03-6.2 230.35-8.45 229.67-10.69 229.08-12.96 228.49-15.23 228.05-17.26 227.61-19.29 227.37-20.65L227.37-20.65Q227.37-19.63 227.35-18.38 227.32-17.14 227.32-16.6L227.32-16.6Q227.32-16.36 227.3-14.99 227.27-13.62 227.13-11.72 226.98-9.81 226.69-7.64 226.39-5.47 225.83-3.61 225.27-1.76 224.44-0.49 223.61 0.78 222.39 0.88L222.39 0.88Q221.41 0.44 220.75-0.61 220.09-1.66 219.66-3.08 219.22-4.49 218.97-6.1 218.73-7.71 218.58-9.25 218.43-10.79 218.41-12.11 218.39-13.43 218.39-14.26L218.39-14.26Q218.39-15.72 218.56-17.94 218.73-20.17 219.12-22.61 219.51-25.05 220.14-27.49 220.78-29.93 221.68-31.86 222.58-33.79 223.78-35.01 224.98-36.23 226.54-36.23L226.54-36.23Q227.27-36.23 228.1-35.4 228.93-34.57 229.76-33.23 230.59-31.88 231.37-30.22 232.16-28.56 232.86-26.88 233.57-25.2 234.11-23.66 234.65-22.12 234.99-21.04L234.99-21.04Q235.38-22.22 235.96-23.78 236.55-25.34 237.26-27.03 237.97-28.71 238.82-30.35 239.67-31.98 240.6-33.28 241.53-34.57 242.48-35.38 243.43-36.18 244.41-36.18L244.41-36.18Q246.12-36.18 247.34-34.91 248.56-33.64 249.39-31.62 250.22-29.59 250.71-27.08 251.2-24.56 251.47-22.09 251.74-19.63 251.81-17.48 251.88-15.33 251.88-14.01L251.88-14.01Q251.88-13.48 251.88-12.55 251.88-11.62 251.86-10.45 251.83-9.28 251.74-7.96 251.64-6.64 251.49-5.32ZM276.64-7.67L276.64-7.67Q276.64-6.74 276.15-5.86L276.15-5.86Q275.66-5.03 273.85-3.91 272.05-2.78 269.85-1.78 267.65-0.78 265.6-0.07 263.55 0.63 262.57 0.63L262.57 0.63Q261.89 0.63 260.96 0.32 260.03 0 259.11-0.49 258.18-0.98 257.42-1.61 256.66-2.25 256.32-2.83L256.32-2.83Q256.13-3.17 255.96-4.2 255.79-5.22 255.66-6.59 255.54-7.96 255.44-9.5 255.35-11.04 255.27-12.43 255.2-13.82 255.18-14.89 255.15-15.97 255.15-16.46L255.15-16.46Q255.15-18.26 255.27-20.61 255.39-22.95 255.74-25.32 256.08-27.69 256.74-29.86 257.4-32.03 258.52-33.54L258.52-33.54Q258.86-33.98 259.89-34.47 260.91-34.96 262.3-35.4 263.7-35.84 265.31-36.23 266.92-36.62 268.41-36.89 269.9-37.16 271.12-37.33 272.34-37.5 272.97-37.5L272.97-37.5Q273.71-37.5 274.36-37.18 275.02-36.87 275.49-36.33 275.95-35.79 276.22-35.13 276.49-34.47 276.49-33.74L276.49-33.74Q276.49-33.11 276.32-32.67 276.15-32.23 275.81-31.69L275.81-31.69Q275.32-31.05 273.75-30.18 272.19-29.3 270.36-28.44 268.53-27.59 266.85-26.9 265.16-26.22 264.48-25.93L264.48-25.93Q264.28-24.8 264.06-23.66 263.84-22.51 263.74-21.34L263.74-21.34Q265.26-22.12 267.16-22.8 269.07-23.49 270.78-23.49L270.78-23.49Q274.24-23.49 274.24-20.07L274.24-20.07Q274.24-19.24 273.93-18.6 273.61-17.97 273.1-17.48 272.58-16.99 271.92-16.63 271.26-16.26 270.63-15.92L270.63-15.92Q269.07-15.09 267.36-14.48 265.65-13.87 263.94-13.28L263.94-13.28Q263.84-12.89 263.74-12.43 263.65-11.96 263.65-11.52L263.65-11.52Q263.65-10.84 263.74-10.16 263.84-9.47 263.94-8.79L263.94-8.79Q264.53-8.98 265.82-9.42 267.11-9.86 268.53-10.3 269.95-10.74 271.26-11.06 272.58-11.38 273.22-11.38L273.22-11.38Q273.95-11.38 274.58-11.06 275.22-10.74 275.66-10.23 276.1-9.72 276.37-9.03 276.64-8.35 276.64-7.67Z" opacity="1" transform="matrix(1,0,0,1,0,0)" fill="#a62a6c" class="wordmark-text-0" data-fill-palette-color="quaternary" id="text-0"></path></svg></g></svg></g></svg></g></svg></g><g transform="matrix(1,0,0,1,70.22613292632859,0)"><svg viewBox="0 0 72.70617537449994 42.514735389319156" height="42.514735389319156" width="72.70617537449994"><g><svg xmlns="http://www.w3.org/2000/svg" xmlns:xlink="http://www.w3.org/1999/xlink" version="1.1" x="0" y="0" viewBox="1.087458984177831 19.54 87.07864955509602 50.91899999999999" enable-background="new 0 0 90 90" xml:space="preserve" height="42.514735389319156" width="72.70617537449994" class="icon-icon-0" data-fill-palette-color="quaternary" id="icon-0"><g fill="#a62a6c" data-fill-palette-color="quaternary"><g fill="#a62a6c" data-fill-palette-color="quaternary"><path d="M25.383 55.314c-0.857-0.986-1.685-2.016-2.486-3.092l-3.269 1.654-6.968-2.4c-0.668-0.221-1.412 0.127-1.643 0.801-0.234 0.676 0.124 1.414 0.801 1.648l4.588 1.582-1.612 0.816-7.078-2.441c-0.672-0.221-1.41 0.129-1.647 0.801-0.231 0.676 0.127 1.414 0.802 1.646l4.704 1.621-1.583 0.801-7.187-2.479c-0.67-0.229-1.411 0.125-1.647 0.799-0.232 0.676 0.127 1.414 0.802 1.645l4.817 1.664L4.93 61.314c-0.958 0.484-1.34 1.652-0.857 2.611 0.341 0.674 1.026 1.063 1.734 1.063 0.293 0 0.592-0.066 0.873-0.209l1.846-0.934-1.69 4.898c-0.231 0.678 0.126 1.414 0.801 1.648 0.141 0.047 0.283 0.068 0.424 0.068 0.537 0 1.037-0.336 1.224-0.869l2.538-7.357c0.007-0.02-0.008-0.035-0.004-0.055l1.666-0.842-1.732 5.021c-0.231 0.672 0.127 1.41 0.801 1.645 0.143 0.045 0.283 0.068 0.423 0.068 0.537 0 1.038-0.336 1.225-0.873l2.534-7.357c0.018-0.049-0.02-0.096-0.009-0.145l1.743-0.885-1.774 5.137c-0.231 0.676 0.125 1.414 0.801 1.646 0.141 0.047 0.283 0.07 0.424 0.07 0.536 0 1.037-0.336 1.224-0.869l2.542-7.357c0.029-0.084-0.026-0.16-0.016-0.244L25.383 55.314z" fill="#a62a6c" data-fill-palette-color="quaternary"></path></g><path d="M74.376 34.863c0-1.04-0.134-2.042-0.346-3.014l-6.813 3.444c0.271 0.173 0.49 0.356 0.811 0.519 0.339 0.171 0.473 0.581 0.303 0.92-0.125 0.238-0.365 0.374-0.614 0.374-0.103 0-0.21-0.022-0.308-0.073-6.256-3.167-4.123-8.721-4.102-8.776 0.139-0.347 0.536-0.521 0.886-0.38 0.353 0.138 0.521 0.534 0.384 0.886-0.021 0.06-0.204 0.602-0.262 1.36l7.173-3.631c-2.525-3.291-6.456-5.446-10.923-5.446-7.552 0-13.656 6.049-13.796 13.56h-0.054c-0.141-7.511-6.247-13.56-13.79-13.56-7.636 0-13.82 6.185-13.82 13.818 0 1.229 0.212 2.4 0.512 3.535l-0.047 0.024c0.143 0.501 0.343 0.973 0.51 1.461 0.054 0.14 0.089 0.292 0.149 0.429 6.214 17.457 26.512 27.352 26.512 27.352s20.298-9.895 26.513-27.352c0.063-0.138 0.099-0.29 0.152-0.431 0.165-0.488 0.365-0.958 0.507-1.459l-0.044-0.024C74.167 37.263 74.376 36.092 74.376 34.863zM23.342 34.8c-0.189-2.19 0.935-4.078 2.522-4.216 1.58-0.138 3.014 1.529 3.203 3.72 0.192 2.195-0.936 4.083-2.516 4.218C24.964 38.661 23.533 36.996 23.342 34.8zM30.062 46.17c-0.801 0.414-1.97-0.267-2.613-1.516-0.65-1.254-0.521-2.602 0.278-3.015 0.803-0.414 1.975 0.266 2.618 1.519C30.993 44.407 30.862 45.754 30.062 46.17z" fill="#a62a6c" data-fill-palette-color="quaternary"></path><path d="M88.001 21.596c-0.298-0.596-0.908-0.966-1.567-0.948l-8.593-1.108c-0.578 0.006-1.104 0.318-1.407 0.814-0.293 0.483-0.329 1.094-0.071 1.614l1.398 2.879-13.336 6.75c0.174 0.831 0.592 1.868 1.563 2.785l13.17-6.663 1.362 2.803c0.25 0.517 0.748 0.873 1.313 0.944 0.329 0.034 0.654-0.024 0.94-0.163 0.223-0.104 0.413-0.256 0.569-0.45l4.431-7.44C88.197 22.901 88.286 22.193 88.001 21.596z" fill="#a62a6c" data-fill-palette-color="quaternary"></path></g></svg></g></svg></g><g></g></svg></g></svg></g></svg></g></svg></g><defs></defs></svg><rect width="342.85155851775386" height="342.85155851775386" fill="none" stroke="none" visibility="hidden"></rect></g></svg></g></svg>